# xmcd
#
# Track frame offsets:
#	150
#	10725
#	21412
#	38520
#	51265
#	61250
#	73525
#	86625
#	100980
#	110845
#	123570
#	133125
#	149650
#	161365
#	179270
#	189495
#	200710
#	212560
#	224520
#
# Disc length: 3183 seconds
#
# Revision: 2
# Processed by: cddbd v1.5.1PL2 Copyright (c) Steve Scherf et al.
# Submitted via: audiograbber 1.83.01
#
DISCID=220c6d13
DTITLE=Various Artist - The Best Trucker Songs
DYEAR=1900
DGENRE=Country
TTITLE0=L. Sheperd - Rythm Of The Road
TTITLE1=L. Sheperd - Truckers Lady
TTITLE2=C. W. McCall - Convoy
TTITLE3=Dave Dudley - Me and The Old C.B.
TTITLE4=Melb Montgomery - Six Days On The Road
TTITLE5=T. Lankford - Freightliner Fever
TTITLE6=Frankie Miller - King Of The Road
TTITLE7=E. Rabbitt - Drivin My Life Away
TTITLE8=L. Sheperd - Dixie Winds
TTITLE9=H. Mills - Girl On The Billboard
TTITLE10=D. Thompson - Truckers Way Of Life
TTITLE11=D. Loggins - Roll On Eigtheen Wheeler
TTITLE12=S. Buona - Ode To 10-33
TTITLE13=L. S. Davis - Wolfcreek Pass
TTITLE14=Merle Haggard - Movin' On
TTITLE15=H. Jacobs - That's Truckerdrivin'
TTITLE16=L. Sheperd - Daddys Gypsy Feet
TTITLE17=B. McDill - Shady Rest
TTITLE18=Larry Cordie - Highway 40 Blues
EXTD=
EXTT0=
EXTT1=
EXTT2=
EXTT3=
EXTT4=
EXTT5=
EXTT6=
EXTT7=
EXTT8=
EXTT9=
EXTT10=
EXTT11=
EXTT12=
EXTT13=
EXTT14=
EXTT15=
EXTT16=
EXTT17=
EXTT18=
PLAYORDER=
